<svg width="150" height="150" version="1.1" viewBox="0 0 39.7 39.7" xmlns="http://www.w3.org/2000/svg">
<defs>
<rect x="1.87" y="7.55" width="39" height="26"/>
<rect x="1.87" y="7.55" width="39" height="26"/>
</defs>
<rect y="-1.11e-16" width="39.7" height="39.7" fill="#ececec" stroke-width=".397"/>
<g transform="matrix(1.5 0 0 1.5 -12.2 -6.19)" fill="#b3b3b3" style="shape-inside:url(#rect49);white-space:pre" aria-label="☹ Gambar tidak tersedia">
<path d="m23.2 10.7q-0.276 0.276-0.496 0.0551-0.551-0.551-1.32-0.551-0.772 0-1.32 0.551-0.22 0.22-0.496-0.0551-0.22-0.22 0.0551-0.496 0.717-0.717 1.76-0.717 1.05 0 1.82 0.772 0.22 0.22 0 0.441zm-1.82 1.32q1.1 0 1.93-0.827 0.827-0.827 0.827-1.93t-0.827-1.93q-0.827-0.827-1.93-0.827-1.1 0-1.93 0.827-0.827 0.827-0.827 1.93t0.827 1.93q0.827 0.827 1.93 0.827zm2.2-0.551q-0.937 0.937-2.2 0.937t-2.2-0.937q-0.937-0.937-0.937-2.2 0-1.27 0.937-2.2 0.937-0.937 2.2-0.937t2.2 0.937q0.937 0.937 0.937 2.2 0 1.27-0.937 2.2zm-3.36-2.7q-0.22 0-0.331-0.11-0.11-0.11-0.11-0.331 0-0.22 0.11-0.331 0.11-0.11 0.331-0.11t0.331 0.11q0.11 0.11 0.11 0.331 0 0.22-0.11 0.331-0.11 0.11-0.331 0.11zm2.65-0.11q-0.11 0.11-0.331 0.11-0.22 0-0.331-0.11-0.11-0.11-0.11-0.331 0-0.22 0.11-0.331 0.11-0.11 0.331-0.11 0.22 0 0.331 0.11 0.11 0.11 0.11 0.331 0 0.22-0.11 0.331z"/>
<path d="m16.1 17.1v0.568q-0.287 0.155-0.49 0.211-0.201 0.0579-0.434 0.0579-0.325 0-0.602-0.0972-0.217-0.0744-0.343-0.188-0.124-0.114-0.229-0.335-0.105-0.223-0.105-0.498v-0.306q0-0.424 0.258-0.757 0.347-0.451 0.945-0.451 0.174 0 0.329 0.0351 0.157 0.0351 0.298 0.105 0.0848-0.0765 0.165-0.0765 0.093 0 0.151 0.0641 0.0579 0.0641 0.0579 0.217v0.275q0 0.153-0.0599 0.219-0.0579 0.0641-0.151 0.0641-0.0744 0-0.128-0.0455-0.0413-0.031-0.0703-0.136-0.0269-0.107-0.062-0.145-0.0558-0.06-0.198-0.105-0.141-0.0475-0.316-0.0475-0.252 0-0.438 0.103-0.132 0.0765-0.244 0.267t-0.112 0.413v0.306q0 0.341 0.196 0.519 0.198 0.176 0.628 0.176 0.291 0 0.531-0.11v-0.304h-0.432q-0.153 0-0.219-0.0579-0.0641-0.0599-0.0641-0.155t0.0641-0.153q0.0662-0.0599 0.219-0.0599l0.752 0.0021q0.153 0 0.217 0.0579 0.0661 0.0579 0.0661 0.153 0 0.0744-0.0455 0.13-0.0434 0.0558-0.134 0.0827z"/>
<path d="m17.9 17.9v-0.0992q-0.159 0.0848-0.351 0.126-0.192 0.0434-0.349 0.0434-0.341 0-0.554-0.18-0.213-0.182-0.213-0.401 0-0.267 0.271-0.494 0.273-0.229 0.752-0.229 0.192 0 0.444 0.0413v-0.101q0-0.0951-0.0827-0.155-0.0806-0.0599-0.31-0.0599-0.188 0-0.488 0.0744-0.112 0.0269-0.174 0.0269-0.0848 0-0.145-0.0599-0.0579-0.062-0.0579-0.157 0-0.0537 0.0207-0.093t0.0579-0.062q0.0372-0.0248 0.155-0.0579 0.157-0.0434 0.32-0.0682 0.163-0.0269 0.296-0.0269 0.395 0 0.612 0.172 0.219 0.169 0.219 0.465v0.872h0.0724q0.153 0 0.217 0.0599 0.0662 0.0579 0.0662 0.153 0 0.093-0.0662 0.153-0.0641 0.0579-0.217 0.0579zm0-0.759q-0.254-0.0496-0.469-0.0496-0.258 0-0.444 0.126-0.116 0.0806-0.116 0.163 0 0.0599 0.0558 0.0972 0.103 0.0682 0.283 0.0682 0.153 0 0.345-0.0599 0.194-0.0599 0.345-0.163z"/>
<path d="m19.4 16v0.12q0.103-0.101 0.186-0.138 0.0848-0.0393 0.194-0.0393 0.093 0 0.184 0.0455t0.178 0.136q0.11-0.091 0.221-0.134 0.114-0.0455 0.232-0.0455 0.236 0 0.382 0.126 0.194 0.165 0.194 0.434v0.949q0.132 0 0.196 0.0599 0.0641 0.0599 0.0641 0.153 0 0.093-0.0641 0.153-0.0641 0.0579-0.217 0.0579h-0.403v-1.34q0-0.0972-0.0351-0.134-0.0351-0.0372-0.107-0.0372-0.0703 0-0.13 0.0372-0.0765 0.0517-0.186 0.194v0.854q0.132 0 0.196 0.0599 0.0641 0.0599 0.0641 0.153 0 0.093-0.0641 0.153-0.0641 0.0579-0.217 0.0579h-0.403v-1.34q0-0.0951-0.0372-0.132-0.0351-0.0393-0.107-0.0393-0.0744 0-0.147 0.0475-0.0724 0.0455-0.174 0.184v0.854q0.132 0 0.196 0.0599 0.0662 0.0599 0.0662 0.153 0 0.093-0.0662 0.153-0.0641 0.0579-0.217 0.0579h-0.382q-0.153 0-0.217-0.0579-0.0662-0.06-0.0662-0.155 0-0.093 0.0641-0.151 0.0641-0.0599 0.198-0.0599v-1.03q-0.134 0-0.198-0.06-0.0641-0.0599-0.0641-0.153 0-0.093 0.0662-0.151 0.0641-0.0599 0.217-0.0599z"/>
<path d="m22.1 15.2v0.951q0.155-0.101 0.314-0.151 0.161-0.0517 0.325-0.0517 0.44 0 0.746 0.304t0.306 0.734q0 0.411-0.291 0.688-0.291 0.275-0.769 0.275-0.169 0-0.327-0.0434t-0.304-0.128v0.103h-0.496q-0.153 0-0.219-0.0579-0.0641-0.06-0.0641-0.155 0-0.093 0.0661-0.151 0.0662-0.0599 0.217-0.0599h0.0724v-1.83h-0.0724q-0.153 0-0.219-0.0579-0.0641-0.0599-0.0641-0.155 0-0.093 0.0641-0.151 0.0662-0.06 0.219-0.06zm1.27 1.8q0-0.263-0.184-0.444-0.184-0.182-0.451-0.182-0.265 0-0.449 0.182t-0.184 0.438q0 0.234 0.165 0.384 0.165 0.149 0.467 0.149t0.467-0.149q0.167-0.151 0.167-0.378z"/>
<path d="m25.5 17.9v-0.0992q-0.159 0.0848-0.351 0.126-0.192 0.0434-0.349 0.0434-0.341 0-0.554-0.18-0.213-0.182-0.213-0.401 0-0.267 0.271-0.494 0.273-0.229 0.752-0.229 0.192 0 0.444 0.0413v-0.101q0-0.0951-0.0827-0.155-0.0806-0.0599-0.31-0.0599-0.188 0-0.488 0.0744-0.112 0.0269-0.174 0.0269-0.0848 0-0.145-0.0599-0.0579-0.062-0.0579-0.157 0-0.0537 0.0207-0.093t0.0579-0.062q0.0372-0.0248 0.155-0.0579 0.157-0.0434 0.32-0.0682 0.163-0.0269 0.296-0.0269 0.395 0 0.612 0.172 0.219 0.169 0.219 0.465v0.872h0.0724q0.153 0 0.217 0.0599 0.0662 0.0579 0.0662 0.153 0 0.093-0.0662 0.153-0.0641 0.0579-0.217 0.0579zm0-0.759q-0.254-0.0496-0.469-0.0496-0.258 0-0.444 0.126-0.116 0.0806-0.116 0.163 0 0.0599 0.0558 0.0972 0.103 0.0682 0.283 0.0682 0.153 0 0.345-0.0599 0.194-0.0599 0.345-0.163z"/>
<path d="m27.6 16v0.265q0.267-0.192 0.42-0.256 0.155-0.0641 0.289-0.0641 0.207 0 0.401 0.153 0.132 0.103 0.132 0.211 0 0.091-0.0641 0.155-0.062 0.062-0.151 0.062-0.0786 0-0.165-0.0786-0.0868-0.0786-0.155-0.0786-0.0889 0-0.267 0.112-0.176 0.112-0.44 0.335v0.639h0.604q0.153 0 0.217 0.0599 0.0662 0.0579 0.0662 0.153 0 0.093-0.0662 0.153-0.0641 0.0579-0.217 0.0579h-1.28q-0.153 0-0.219-0.0579-0.0641-0.06-0.0641-0.155 0-0.093 0.0641-0.151 0.0662-0.0599 0.219-0.0599h0.252v-1.03h-0.153q-0.153 0-0.219-0.0579-0.0641-0.0599-0.0641-0.155 0-0.093 0.0641-0.151 0.0662-0.0599 0.219-0.0599z"/>
<path d="m16.2 22v0.85q0 0.136 0.0558 0.18 0.0868 0.0682 0.31 0.0682 0.325 0 0.599-0.138 0.105-0.0537 0.165-0.0537 0.0827 0 0.143 0.062 0.062 0.062 0.062 0.151 0 0.0827-0.0662 0.143-0.101 0.0972-0.401 0.18-0.298 0.0806-0.502 0.0806-0.395 0-0.593-0.169-0.196-0.172-0.196-0.42v-0.932h-0.153q-0.153 0-0.219-0.0579-0.0641-0.0599-0.0641-0.155 0-0.093 0.0641-0.151 0.0662-0.0599 0.219-0.0599h0.153v-0.382q0-0.153 0.0579-0.217 0.06-0.0662 0.155-0.0662 0.093 0 0.151 0.0662 0.06 0.0641 0.06 0.217v0.382h0.783q0.153 0 0.217 0.0599 0.0662 0.0579 0.0662 0.153 0 0.093-0.0662 0.153-0.0641 0.0579-0.217 0.0579z"/>
<path d="m19 20.7v0.449h-0.504v-0.449zm0.0579 0.804v1.45h0.508q0.153 0 0.217 0.0599 0.0662 0.0579 0.0662 0.153 0 0.093-0.0662 0.153-0.0641 0.0579-0.217 0.0579h-1.44q-0.153 0-0.219-0.0579-0.0641-0.0599-0.0641-0.155 0-0.093 0.0641-0.151 0.0662-0.0599 0.219-0.0599h0.508v-1.03h-0.341q-0.151 0-0.217-0.0579-0.0661-0.0599-0.0661-0.155 0-0.093 0.0641-0.151 0.0662-0.0599 0.219-0.0599z"/>
<path d="m22.3 20.7v2.26h0.0724q0.151 0 0.217 0.0599 0.0662 0.0579 0.0662 0.153 0 0.093-0.0662 0.153-0.0641 0.0579-0.217 0.0579h-0.496v-0.103q-0.145 0.0848-0.304 0.128-0.157 0.0434-0.327 0.0434-0.477 0-0.769-0.275-0.291-0.277-0.291-0.688 0-0.43 0.306-0.734t0.746-0.304q0.165 0 0.325 0.0517 0.159 0.0496 0.314 0.151v-0.527h-0.0724q-0.153 0-0.219-0.0579-0.0641-0.0599-0.0641-0.153 0-0.0951 0.0641-0.153 0.0662-0.0599 0.219-0.0599zm-0.424 1.8q0-0.263-0.184-0.444t-0.451-0.182q-0.265 0-0.449 0.182t-0.184 0.438q0 0.234 0.165 0.384 0.165 0.149 0.467 0.149 0.3 0 0.467-0.149 0.167-0.151 0.167-0.378z"/>
<path d="m24.3 23.4v-0.0992q-0.159 0.0848-0.351 0.126-0.192 0.0434-0.349 0.0434-0.341 0-0.554-0.18-0.213-0.182-0.213-0.401 0-0.267 0.271-0.494 0.273-0.229 0.752-0.229 0.192 0 0.444 0.0413v-0.101q0-0.0951-0.0827-0.155-0.0806-0.0599-0.31-0.0599-0.188 0-0.488 0.0744-0.112 0.0269-0.174 0.0269-0.0848 0-0.145-0.0599-0.0579-0.062-0.0579-0.157 0-0.0537 0.0207-0.093t0.0579-0.062q0.0372-0.0248 0.155-0.0579 0.157-0.0434 0.32-0.0682 0.163-0.0269 0.296-0.0269 0.395 0 0.612 0.172 0.219 0.169 0.219 0.465v0.872h0.0724q0.153 0 0.217 0.0599 0.0662 0.0579 0.0662 0.153 0 0.093-0.0662 0.153-0.0641 0.0579-0.217 0.0579zm0-0.759q-0.254-0.0496-0.469-0.0496-0.258 0-0.444 0.126-0.116 0.0806-0.116 0.163 0 0.0599 0.0558 0.0972 0.103 0.0682 0.283 0.0682 0.153 0 0.345-0.0599 0.194-0.0599 0.345-0.163z"/>
<path d="m26.1 22.7v0.705h-0.496q-0.153 0-0.219-0.0579-0.0641-0.0599-0.0641-0.155 0-0.093 0.0662-0.151 0.0662-0.0599 0.217-0.0599h0.0724v-1.83h-0.0724q-0.153 0-0.219-0.0579-0.0641-0.0599-0.0641-0.155 0-0.093 0.0641-0.151 0.0662-0.0599 0.219-0.0599h0.496v1.43l0.331-0.267q-0.0517-0.0889-0.0517-0.145 0-0.0951 0.0641-0.153 0.0641-0.0599 0.217-0.0599h0.484q0.153 0 0.217 0.0599 0.0662 0.0579 0.0662 0.153 0 0.093-0.0662 0.153-0.0641 0.0579-0.217 0.0579h-0.118l-0.515 0.418 0.692 0.612h0.124q0.153 0 0.217 0.0599 0.0662 0.0579 0.0662 0.153 0 0.093-0.0662 0.153-0.0641 0.0579-0.217 0.0579h-0.488q-0.153 0-0.219-0.0579-0.0641-0.0599-0.0641-0.155 0-0.0806 0.0703-0.159l-0.449-0.397z"/>
<path d="m12.4 27.5v0.85q0 0.136 0.0558 0.18 0.0868 0.0682 0.31 0.0682 0.325 0 0.599-0.138 0.105-0.0537 0.165-0.0537 0.0827 0 0.143 0.062 0.062 0.062 0.062 0.151 0 0.0827-0.0662 0.143-0.101 0.0972-0.401 0.18-0.298 0.0806-0.502 0.0806-0.395 0-0.593-0.169-0.196-0.172-0.196-0.42v-0.932h-0.153q-0.153 0-0.219-0.0579-0.0641-0.0599-0.0641-0.155 0-0.093 0.0641-0.151 0.0662-0.0599 0.219-0.0599h0.153v-0.382q0-0.153 0.0579-0.217 0.0599-0.0662 0.155-0.0662 0.093 0 0.151 0.0662 0.06 0.0641 0.06 0.217v0.382h0.783q0.153 0 0.217 0.0599 0.0661 0.0579 0.0661 0.153 0 0.093-0.0661 0.153-0.0641 0.0579-0.217 0.0579z"/>
<path d="m16.1 28.2h-1.74q0.0662 0.165 0.234 0.267 0.169 0.101 0.457 0.101 0.236 0 0.626-0.101 0.161-0.0413 0.223-0.0413 0.0848 0 0.143 0.0599 0.0579 0.0599 0.0579 0.151 0 0.0827-0.062 0.141-0.0827 0.0765-0.403 0.147-0.32 0.0682-0.616 0.0682-0.508 0-0.814-0.287-0.304-0.287-0.304-0.707 0-0.446 0.329-0.726 0.331-0.281 0.761-0.281 0.258 0 0.473 0.091 0.217 0.091 0.322 0.196 0.149 0.153 0.246 0.378 0.0661 0.157 0.0661 0.364zm-0.469-0.424q-0.0972-0.182-0.254-0.271-0.157-0.091-0.374-0.091-0.215 0-0.372 0.091-0.157 0.0889-0.256 0.271z"/>
<path d="m17.5 27v0.265q0.267-0.192 0.42-0.256 0.155-0.0641 0.289-0.0641 0.207 0 0.401 0.153 0.132 0.103 0.132 0.211 0 0.091-0.0641 0.155-0.062 0.062-0.151 0.062-0.0786 0-0.165-0.0786-0.0868-0.0786-0.155-0.0786-0.0889 0-0.267 0.112-0.176 0.112-0.44 0.335v0.639h0.604q0.153 0 0.217 0.06 0.0661 0.0579 0.0661 0.153 0 0.093-0.0661 0.153-0.0641 0.0579-0.217 0.0579h-1.28q-0.153 0-0.219-0.0579-0.0641-0.0599-0.0641-0.155 0-0.093 0.0641-0.151 0.0662-0.06 0.219-0.06h0.252v-1.03h-0.153q-0.153 0-0.219-0.0579-0.0641-0.0599-0.0641-0.155 0-0.093 0.0641-0.151 0.0662-0.0599 0.219-0.0599z"/>
<path d="m20.5 27.5q-0.103-0.0641-0.217-0.0951-0.114-0.0331-0.238-0.0331-0.246 0-0.391 0.0806-0.0641 0.0351-0.0641 0.0765 0 0.0475 0.0868 0.093 0.0662 0.0331 0.296 0.0641 0.422 0.0579 0.587 0.116 0.217 0.0765 0.335 0.227 0.118 0.151 0.118 0.318 0 0.227-0.201 0.38-0.287 0.221-0.746 0.221-0.184 0-0.341-0.0331-0.155-0.031-0.285-0.093-0.031 0.0269-0.0662 0.0413t-0.0724 0.0145q-0.0992 0-0.159-0.0641-0.0579-0.0662-0.0579-0.219v-0.143q0-0.153 0.0579-0.217 0.0599-0.0662 0.155-0.0662 0.0765 0 0.128 0.0434 0.0517 0.0413 0.0806 0.145 0.0972 0.0827 0.234 0.126 0.136 0.0413 0.314 0.0413 0.291 0 0.453-0.091 0.0765-0.0455 0.0765-0.0951 0-0.0827-0.11-0.136-0.11-0.0537-0.453-0.091-0.511-0.0537-0.682-0.207-0.172-0.151-0.172-0.372 0-0.227 0.192-0.378 0.26-0.207 0.682-0.207 0.147 0 0.281 0.0289 0.136 0.0269 0.26 0.0848 0.0393-0.0289 0.0724-0.0434 0.0351-0.0145 0.0641-0.0145 0.0868 0 0.145 0.0662 0.0579 0.0641 0.0579 0.217v0.103q0 0.138-0.0331 0.188-0.0662 0.0951-0.18 0.0951-0.0765 0-0.134-0.0475-0.0579-0.0475-0.0744-0.126z"/>
<path d="m23.7 28.2h-1.74q0.0662 0.165 0.234 0.267 0.169 0.101 0.457 0.101 0.236 0 0.626-0.101 0.161-0.0413 0.223-0.0413 0.0848 0 0.143 0.0599 0.0579 0.0599 0.0579 0.151 0 0.0827-0.062 0.141-0.0827 0.0765-0.403 0.147-0.32 0.0682-0.616 0.0682-0.508 0-0.814-0.287-0.304-0.287-0.304-0.707 0-0.446 0.329-0.726 0.331-0.281 0.761-0.281 0.258 0 0.473 0.091 0.217 0.091 0.322 0.196 0.149 0.153 0.246 0.378 0.0662 0.157 0.0662 0.364zm-0.469-0.424q-0.0972-0.182-0.254-0.271-0.157-0.091-0.374-0.091-0.215 0-0.372 0.091-0.157 0.0889-0.256 0.271z"/>
<path d="m26.1 26.2v2.26h0.0724q0.151 0 0.217 0.06 0.0662 0.0579 0.0662 0.153 0 0.093-0.0662 0.153-0.0641 0.0579-0.217 0.0579h-0.496v-0.103q-0.145 0.0848-0.304 0.128-0.157 0.0434-0.327 0.0434-0.477 0-0.769-0.275-0.291-0.277-0.291-0.688 0-0.43 0.306-0.734t0.746-0.304q0.165 0 0.325 0.0517 0.159 0.0496 0.314 0.151v-0.527h-0.0724q-0.153 0-0.219-0.0579-0.0641-0.0599-0.0641-0.153 0-0.0951 0.0641-0.153 0.0662-0.0599 0.219-0.0599zm-0.424 1.8q0-0.263-0.184-0.444t-0.451-0.182q-0.265 0-0.449 0.182t-0.184 0.438q0 0.234 0.165 0.384 0.165 0.149 0.467 0.149 0.3 0 0.467-0.149 0.167-0.151 0.167-0.378z"/>
<path d="m27.9 26.2v0.449h-0.504v-0.449zm0.0579 0.804v1.45h0.508q0.153 0 0.217 0.06 0.0662 0.0579 0.0662 0.153 0 0.093-0.0662 0.153-0.0641 0.0579-0.217 0.0579h-1.44q-0.153 0-0.219-0.0579-0.0641-0.0599-0.0641-0.155 0-0.093 0.0641-0.151 0.0662-0.06 0.219-0.06h0.508v-1.03h-0.341q-0.151 0-0.217-0.0579-0.0662-0.0599-0.0662-0.155 0-0.093 0.0641-0.151 0.0662-0.0599 0.219-0.0599z"/>
<path d="m30.6 28.9v-0.0992q-0.159 0.0848-0.351 0.126-0.192 0.0434-0.349 0.0434-0.341 0-0.554-0.18-0.213-0.182-0.213-0.401 0-0.267 0.271-0.494 0.273-0.229 0.752-0.229 0.192 0 0.444 0.0413v-0.101q0-0.0951-0.0827-0.155-0.0806-0.0599-0.31-0.0599-0.188 0-0.488 0.0744-0.112 0.0269-0.174 0.0269-0.0848 0-0.145-0.0599-0.0579-0.062-0.0579-0.157 0-0.0537 0.0207-0.093t0.0579-0.062q0.0372-0.0248 0.155-0.0579 0.157-0.0434 0.32-0.0682 0.163-0.0269 0.296-0.0269 0.395 0 0.612 0.172 0.219 0.169 0.219 0.465v0.872h0.0724q0.153 0 0.217 0.06 0.0662 0.0579 0.0662 0.153 0 0.093-0.0662 0.153-0.0641 0.0579-0.217 0.0579zm0-0.759q-0.254-0.0496-0.469-0.0496-0.258 0-0.444 0.126-0.116 0.0806-0.116 0.163 0 0.0599 0.0558 0.0972 0.103 0.0682 0.283 0.0682 0.153 0 0.345-0.0599 0.194-0.0599 0.345-0.163z"/>
</g>
</svg>
